<svg width="16" height="16" viewBox="0 0 16 16" fill="none" xmlns="http://www.w3.org/2000/svg">
<path d="M8 6.52705e-05C5.87828 6.52705e-05 3.84356 0.84291 2.34314 2.34319C0.84288 3.84358 0 5.87855 0 8.00003C0 10.1215 0.842848 12.1565 2.34314 13.6569C3.84353 15.1571 5.87851 16 8 16C10.1215 16 12.1564 15.1572 13.6569 13.6569C15.1571 12.1565 16 10.1215 16 8.00003C16 6.59568 15.6304 5.21622 14.9282 4.00002C14.226 2.78382 13.2162 1.77398 12 1.07181C10.7838 0.369634 9.40435 6.52705e-05 8 6.52705e-05ZM7.23431 10.7142C7.1301 10.8061 6.99604 10.8568 6.85713 10.8571C6.70522 10.858 6.5593 10.7983 6.45138 10.6914L3.59422 7.83425L4.40572 7.02275L6.85713 9.50273L11.6 5.28557L12.3544 6.14271L7.23431 10.7142Z" fill="#6CAE6C"/>
</svg>
