<svg xmlns="http://www.w3.org/2000/svg" width="35" height="36" viewBox="0 0 35 36">
    <g fill="none" fill-rule="evenodd" transform="translate(0 -2)">
        <path fill="#FED100" d="M2 8.5h30.5l.91 2.227L1 10.5z"/>
        <path fill="#FED100" d="M34 9.5V36l-2 .5V9z"/>
        <path fill="#000" fill-rule="nonzero" d="M16.943 24.796c-.032.433-.13.83-.293 1.193-.164.363-.39.674-.678.933-.289.26-.639.462-1.05.609-.412.146-.88.219-1.407.219a3.653 3.653 0 0 1-1.47-.284 3.007 3.007 0 0 1-1.106-.816 3.707 3.707 0 0 1-.696-1.29A5.553 5.553 0 0 1 10 23.663V23.1c0-.628.084-1.195.252-1.702a3.76 3.76 0 0 1 .71-1.293 3.084 3.084 0 0 1 1.114-.818A3.61 3.61 0 0 1 13.54 19c.53 0 .999.075 1.406.225.408.15.754.359 1.038.626.285.267.507.585.667.953.16.369.261.77.304 1.202H15.2a2.655 2.655 0 0 0-.132-.672 1.32 1.32 0 0 0-.295-.492 1.221 1.221 0 0 0-.497-.3 2.326 2.326 0 0 0-.737-.103c-.593 0-1.035.215-1.325.646-.29.431-.436 1.099-.436 2.003v.574c0 .44.032.826.097 1.158.064.331.165.608.304.83.138.222.317.39.538.5.22.111.486.167.798.167.277 0 .516-.031.717-.094.2-.062.368-.157.503-.283.134-.127.238-.286.313-.477a2.34 2.34 0 0 0 .14-.667h1.755zm5.96 1.082h-3.077l-.585 1.755h-1.866l3.17-8.516h1.627l3.187 8.516h-1.866l-.59-1.755zM20.3 24.457h2.129l-1.07-3.188-1.06 3.188z"/>
        <rect width="33.7" height="28.927" x=".65" y="8.195" stroke="#000" stroke-width="1.3" rx="4"/>
        <path fill="#000" d="M17.027 11.74l-1.705.915a1 1 0 0 1-1.461-1.035l.327-2.09a1 1 0 0 0-.27-.85l-1.473-1.52a1 1 0 0 1 .56-1.684l1.98-.317a1 1 0 0 0 .743-.552l.872-1.803a1 1 0 0 1 1.8 0l.872 1.803a1 1 0 0 0 .742.552l1.98.317a1 1 0 0 1 .56 1.683L21.083 8.68a1 1 0 0 0-.27.85l.327 2.09a1 1 0 0 1-1.46 1.035l-1.706-.915a1 1 0 0 0-.946 0z"/>
    </g>
</svg>
