<svg xmlns="http://www.w3.org/2000/svg" width="36" height="37" viewBox="0 0 36 37">
    <g fill="none" fill-rule="evenodd">
        <path fill="#FED100" d="M16.981 8.079h2.717v23.094h-2.717zM1.358 24.38h11.548l-.68 2.039H2.038zM23.094 24.38h11.548l-.68 2.039H23.774z"/>
        <path fill="#000" fill-rule="nonzero" d="M35.94 22.559l.005-.002-5.91-12.896 1.433-.714-.536-1.073-1.398.696-.189-.413a.6.6 0 0 0-1.09 0l-.169.369a7.718 7.718 0 0 0-3.246-.718H19.8v-1.2H21v-1.2h-1.031L20.4 3.68a2.474 2.474 0 1 0-4.8 0l.431 1.726H15v1.2h1.2v1.2h-5.037a7.718 7.718 0 0 0-3.249.72l-.169-.368a.6.6 0 0 0-1.09 0l-.19.412-1.397-.699-.536 1.075 1.433.717-5.91 12.893a.586.586 0 0 0-.055.25 4.205 4.205 0 0 0 4.2 4.2h6a4.205 4.205 0 0 0 4.2-4.2.587.587 0 0 0-.06-.248L8.413 9.614c.862-.4 1.8-.607 2.75-.607H16.2V30.96l-2.048 2.048H12a3.004 3.004 0 0 0-3 3 .6.6 0 0 0 .6.6h16.8a.6.6 0 0 0 .6-.6 3.004 3.004 0 0 0-3-3h-2.152L19.8 30.96V9.007h5.04c.95 0 1.888.207 2.75.607l-5.935 12.943a.586.586 0 0 0-.055.25 4.205 4.205 0 0 0 4.2 4.2h6a4.205 4.205 0 0 0 4.2-4.2.584.584 0 0 0-.06-.248zM10.2 25.807h-6a3.005 3.005 0 0 1-2.94-2.4h11.88a3.005 3.005 0 0 1-2.94 2.4zm2.665-3.6H1.535l5.511-12.024c.101.027.207.027.308 0l5.511 12.024zm4.131-19.91a1.313 1.313 0 0 1 2.008 0c.243.309.328.713.232 1.093l-.505 2.018H17.27l-.505-2.018c-.096-.38-.01-.784.232-1.093zm.404 5.51v-1.2h1.2v1.2h-1.2zm1.2 1.2v21.6h-1.2v-21.6h1.2zm5.4 25.2c.763.001 1.442.482 1.697 1.2H10.303c.255-.718.934-1.199 1.697-1.2h12zm-3.848-1.2h-4.304l1.2-1.2h1.904l1.2 1.2zm8.493-22.822c.1.035.208.03.304-.013l5.516 12.035h-11.33l5.51-12.022zM31.8 25.807h-6a3.005 3.005 0 0 1-2.94-2.4h11.88a3.005 3.005 0 0 1-2.94 2.4z"/>
    </g>
</svg>
